# xmcd CD database file
#
# Track frame offsets:
#	150
#	38542
#	47515
#	71515
#	82620
#	122725
#	149062
#	178977
#	195787
#	210520
#
# Disc length: 3318 seconds
#
# Revision: 0
# Processed by: cddbd v1.5.1PL0 Copyright (c) Steve Scherf et al.
# Submitted via: CDex 1.60beta1
#
DISCID=800cf40a
DTITLE=Betty Carter - Finally
DYEAR=1991
DGENRE=Jazz
TTITLE0=Seems Like Old Times (Medley)
TTITLE1=Blue Moon
TTITLE2=Sun Died
TTITLE3=I Only Have Eyes for You
TTITLE4=Body and Soul (Medley)
TTITLE5=I Didn't Know What Time It Was (Medley)
TTITLE6=Girl Talk
TTITLE7=You're a Sweetheart
TTITLE8=Ego
TTITLE9=All Through the Day
EXTD=YEAR: 1991
EXTT0=
EXTT1=
EXTT2=
EXTT3=
EXTT4=
EXTT5=
EXTT6=
EXTT7=
EXTT8=
EXTT9=
PLAYORDER=
